<svg aria-hidden="true" style="position: absolute; width: 0; height: 0; overflow: hidden;" version="1.1" xmlns="http://www.w3.org/2000/svg" xmlns:xlink="http://www.w3.org/1999/xlink">
<defs>
<symbol id="github" viewBox="0 0 32 32">
<path d="M15.82 0.39c-8.624 0-15.61 7.162-15.61 16.005 0 7.082 4.468 13.064 10.673 15.184 0.78 0.14 1.073-0.34 1.073-0.76 0-0.38-0.020-1.641-0.020-2.981-3.922 0.741-4.937-0.98-5.249-1.88-0.176-0.46-0.937-1.881-1.6-2.26-0.546-0.3-1.327-1.040-0.019-1.061 1.229-0.020 2.107 1.161 2.4 1.641 1.405 2.42 3.649 1.741 4.546 1.321 0.137-1.040 0.546-1.741 0.995-2.141-3.473-0.4-7.102-1.78-7.102-7.902 0-1.74 0.605-3.181 1.6-4.301-0.156-0.4-0.702-2.041 0.156-4.242 0 0 1.307-0.42 4.293 1.641 1.249-0.36 2.576-0.54 3.902-0.54s2.654 0.179 3.902 0.54c2.985-2.081 4.293-1.641 4.293-1.641 0.859 2.201 0.312 3.842 0.156 4.241 0.995 1.121 1.6 2.541 1.6 4.301 0 6.142-3.649 7.502-7.122 7.902 0.566 0.5 1.054 1.46 1.054 2.961 0 2.14-0.020 3.861-0.020 4.401 0 0.42 0.293 0.92 1.073 0.76 6.166-2.121 10.634-8.123 10.634-15.184 0-8.843-6.985-16.005-15.61-16.005z"></path>
</symbol>
<symbol id="instagram" viewBox="0 0 32 32">
<path d="M9.085 0.008c-5.001 0-9.085 4.176-9.085 9.29v13.426c0 5.106 4.084 9.274 9.085 9.274h13.132c4.994 0 9.070-4.176 9.070-9.29v-13.419c0-5.114-4.076-9.29-9.078-9.29l-13.124 0.008zM9.085 2.469h13.124c3.7 0 6.671 3.038 6.671 6.829v13.419c0 3.791-2.971 6.829-6.664 6.829h-13.13c-3.707 0-6.678-3.038-6.678-6.814v-13.428c0.008-3.798 2.978-6.836 6.678-6.836zM25.277 4.93c-0.669 0-1.202 0.546-1.202 1.23s0.534 1.23 1.203 1.23 1.202-0.546 1.202-1.23c0-0.685-0.534-1.23-1.203-1.23zM15.652 7.39c-4.633 0-8.424 3.876-8.424 8.613s3.791 8.613 8.424 8.613c4.632 0 8.423-3.876 8.423-8.613s-3.79-8.613-8.424-8.613zM15.652 9.851c3.339 0 6.016 2.738 6.016 6.152s-2.677 6.152-6.016 6.152c-3.34 0-6.017-2.738-6.017-6.152s2.678-6.152 6.016-6.152z"></path>
</symbol>
<symbol id="linkedin" viewBox="0 0 32 32">
<path stroke-linejoin="miter" stroke-linecap="butt" stroke-miterlimit="4" stroke-width="0.381" d="M26.882 0.655h-21.638c-2.471 0-4.482 2.005-4.482 4.469v21.58c0 2.466 2.011 4.472 4.483 4.472h21.637c2.472 0 4.483-2.006 4.483-4.472v-21.579c0-2.465-2.011-4.471-4.483-4.471zM29.572 26.705c-0.004 1.482-1.207 2.683-2.689 2.683 0 0 0 0 0 0h-21.638c0 0 0 0 0 0-1.483 0-2.685-1.2-2.689-2.681v-21.581c0.004-1.482 1.207-2.682 2.689-2.682 0 0 0 0 0 0h21.638c0 0 0 0 0 0 1.483 0 2.685 1.2 2.689 2.682v21.581z"></path>
<path d="M24.478 22.777h-3.285v-5.486c0-0.379-0.027-0.753-0.123-1.122-0.392-1.522-2.088-1.433-2.763-0.712-0.339 0.363-0.56 0.773-0.57 1.279-0.002 0.12-0.009 0.241-0.009 0.361v5.679h-3.279v-10.182h3.278v1.366l0.026 0.011 0.070-0.095c0.329-0.456 0.706-0.861 1.208-1.134 0.561-0.306 1.166-0.408 1.795-0.39 0.682 0.020 1.33 0.173 1.912 0.54 0.747 0.47 1.203 1.158 1.47 1.984 0.208 0.643 0.276 1.307 0.277 1.979 0.002 1.934 0 3.868 0 5.803 0 0.038-0.003 0.076-0.005 0.119zM12.445 22.783h-3.261v-10.193h3.261v10.193zM10.954 7.522c1.027-0.002 1.754 0.729 1.757 1.766 0.004 1.026-0.734 1.752-1.781 1.752-1.021 0-1.75-0.73-1.752-1.757s0.738-1.76 1.777-1.762z"></path>
</symbol>

<symbol id="facebook" viewBox="0 0 32 32">
<path d="M21.329 5.313h2.921v-5.088c-0.504-0.069-2.237-0.225-4.256-0.225-4.212 0-7.097 2.649-7.097 7.519v4.481h-4.648v5.688h4.648v14.312h5.699v-14.311h4.46l0.708-5.688h-5.169v-3.919c0.001-1.644 0.444-2.769 2.735-2.769z"></path>
</symbol>
</defs>
</svg>
